<?xml version="1.0" encoding="UTF-8" standalone="no"?>
<svg
   xmlns:dc="http://purl.org/dc/elements/1.1/"
   xmlns:cc="http://creativecommons.org/ns#"
   xmlns:rdf="http://www.w3.org/1999/02/22-rdf-syntax-ns#"
   xmlns:svg="http://www.w3.org/2000/svg"
   xmlns="http://www.w3.org/2000/svg"
   viewBox="0 0 1122.52 793.70667"
   height="793.70667"
   width="1122.52"
   xml:space="preserve"
   id="svg2"
   version="1.1"><metadata
     id="metadata8"><rdf:RDF><cc:Work
         rdf:about=""><dc:format>image/svg+xml</dc:format><dc:type
           rdf:resource="http://purl.org/dc/dcmitype/StillImage" /></cc:Work></rdf:RDF></metadata><defs
     id="defs6"><clipPath
       id="clipPath18"
       clipPathUnits="userSpaceOnUse"><path
         id="path16"
         d="M 0,595.28 H 841.89 V 0 H 0 Z" /></clipPath></defs><g
     transform="matrix(1.3333333,0,0,-1.3333333,0,793.70667)"
     id="g10"><g
       id="g12"><g
         clip-path="url(#clipPath18)"
         id="g14"><g
           transform="translate(419.2296,100.0015)"
           id="g20"><path
             id="path22"
             style="fill:#f6f6f6;fill-opacity:1;fill-rule:nonzero;stroke:none"
             d="m 0,0 c -1.369,0 -2.737,0.432 -3.888,1.297 l -153.651,115.33 c -1.63,1.223 -2.589,3.142 -2.589,5.182 v 174.906 c 0,2.035 0.957,3.952 2.583,5.175 L -2.619,418.494 c 2.303,1.737 5.474,1.735 7.781,0.008 L 160.634,301.898 152.862,291.531 1.282,405.217 -147.172,293.482 V 125.045 L 0.03,14.557 150.409,125.748 150.597,216.039 1.179,325.841 -109.86,248.332 l -7.415,10.624 114.844,80.163 c 2.271,1.588 5.303,1.554 7.543,-0.093 L 160.917,224.531 c 1.666,-1.223 2.646,-3.167 2.642,-5.232 l -0.2,-96.837 c -0.004,-2.049 -0.979,-3.977 -2.628,-5.196 L 3.851,1.269 C 2.708,0.424 1.354,0 0,0" /></g></g></g></g></svg>