<?xml version="1.0" encoding="UTF-8" standalone="yes"?><svg xmlns:dc="http://purl.org/dc/elements/1.1/" xmlns:cc="http://creativecommons.org/ns#" xmlns:rdf="http://www.w3.org/1999/02/22-rdf-syntax-ns#" xmlns:svg="http://www.w3.org/2000/svg" xmlns="http://www.w3.org/2000/svg" viewBox="0 0 1122.52 793.70667" height="793.70667" width="1122.52" xml:space="preserve" id="svg2" version="1.1" style="zoom: 1;"><metadata id="metadata8"><rdf:RDF visibility="hidden"><cc:Work rdf:about=""><dc:format>image/svg+xml</dc:format><dc:type rdf:resource="http://purl.org/dc/dcmitype/StillImage"></dc:type></cc:Work></rdf:RDF></metadata><defs id="defs6"><clipPath id="clipPath18" clipPathUnits="userSpaceOnUse"><path id="path16" d="M 0,595.28 H 841.89 V 0 H 0 Z"></path></clipPath></defs><g transform="matrix(1.3333333,0,0,-1.3333333,0,793.70667)" id="g10"><g id="g12"><g clip-path="url(#clipPath18)" id="g14"><g transform="translate(419.2296,100.0015)" id="g20"><path d="M0,0 C-1.369,0 -2.737,0.432 -3.888,1.297 L-157.539001,116.626999 C-159.169006,117.849998 -160.128006,119.768997 -160.128006,121.808998 V296.715027 C-160.128006,298.75 -159.171005,300.666992 -157.545013,301.889984 L-2.619,418.494 C-0.316,420.230988 2.855,420.228973 5.162,418.501984 L160.634,301.898 L152.862,291.531 L1.282,405.217 L-147.172,293.482 V125.045 L0.03,14.557 L150.409,125.748 L150.597,216.039 L1.179,325.841 L-109.86,248.332 L-117.275002,258.955994 L-2.431,339.118988 C-0.159999,340.707001 2.872001,340.672974 5.112001,339.026001 L160.917,224.531 C162.583008,223.307999 163.563004,221.363998 163.559006,219.299011 L163.359009,122.462013 C163.355011,120.413002 162.380005,118.485008 160.731003,117.266006 L3.851,1.269 C2.708,0.424 1.354,0 0,0 " id="path22" style="stroke-width:5; new-css-style:new-value; fill:#113552; fill-opacity:1; fill-rule:nonzero; stroke:#113552; "></path></g></g></g></g></svg>